<svg xmlns="http://www.w3.org/2000/svg" width="59.42" height="42.42" viewBox="0 0 59.42 42.42">
  <g id="Group_5" data-name="Group 5" transform="translate(-969.79 -1092.79)">
    <path id="Rectangle_13" data-name="Rectangle 13" d="M4,0H26a4,4,0,0,1,4,4V4A26,26,0,0,1,4,30H4a4,4,0,0,1-4-4V4A4,4,0,0,1,4,0Z" transform="matrix(-0.695, 0.719, -0.719, -0.695, 1002.21, 1113.63)" fill="#315b96"/>
    <path id="Rectangle_20" data-name="Rectangle 20" d="M4,0H26a4,4,0,0,1,4,4V4A26,26,0,0,1,4,30H4a4,4,0,0,1-4-4V4A4,4,0,0,1,4,0Z" transform="matrix(-0.719, 0.695, -0.695, -0.719, 1019.21, 1114.37)" fill="#d57868"/>
  </g>
</svg>
